<?xml version="1.0" encoding="utf-8"?>
<!-- Generator: Adobe Illustrator 27.5.0, SVG Export Plug-In . SVG Version: 6.00 Build 0)  -->
<svg version="1.1" id="Digital_Financial" xmlns="http://www.w3.org/2000/svg" xmlns:xlink="http://www.w3.org/1999/xlink" x="0px"
	 y="0px" viewBox="0 0 2267.72 1700.79" style="enable-background:new 0 0 2267.72 1700.79;" xml:space="preserve">
<style type="text/css">
	.st0{fill:none;stroke:#55A1D8;stroke-miterlimit:10;}
</style>
<path class="st0" d="M702.89,527.99H555.8V247.8h280.19v147.09C835.99,468.4,776.4,527.99,702.89,527.99z"/>
<path class="st0" d="M835.99,833.18H555.8V649.22c0-53.14,43.08-96.23,96.23-96.23h87.73c53.14,0,96.23,43.08,96.23,96.23V833.18z"
	/>
<path class="st0" d="M1483.65,833.18h-280.19V649.22c0-53.14,43.08-96.23,96.23-96.23h87.73c53.14,0,96.23,43.08,96.23,96.23V833.18
	z"/>
<path class="st0" d="M1169.07,833.18H888.88V678.79c0-69.48,56.32-125.8,125.8-125.8h154.39V833.18z"/>
<path class="st0" d="M1813.36,833.18h-280.19V678.79c0-69.48,56.32-125.8,125.8-125.8h154.39V833.18z"/>
<path class="st0" d="M1533.18,1153.49h280.19v-125.81c0-85.26-69.12-154.38-154.38-154.38h-125.81V1153.49z"/>
<path class="st0" d="M888.88,1153.49h280.19v-125.81c0-85.26-69.12-154.38-154.38-154.38H888.88V1153.49z"/>
<path class="st0" d="M835.99,873.31H555.8v125.81c0,85.26,69.12,154.38,154.38,154.38h125.81V873.31z"/>
<path class="st0" d="M1480.28,873.31h-280.19v125.81c0,85.26,69.12,154.38,154.38,154.38h125.81V873.31z"/>
<path class="st0" d="M1074.61,527.99h-91.27c-52.17,0-94.46-42.29-94.46-94.46V247.8h280.19v185.73
	C1169.07,485.7,1126.78,527.99,1074.61,527.99z"/>
<path class="st0" d="M1350.55,527.99h-147.09V247.8h280.19v147.09C1483.65,468.4,1424.06,527.99,1350.55,527.99z"/>
<path class="st0" d="M1718.9,527.99h-91.27c-52.17,0-94.46-42.29-94.46-94.46V247.8h280.19v185.73
	C1813.36,485.7,1771.07,527.99,1718.9,527.99z"/>
<path class="st0" d="M702.89,1479.1H555.8v-280.19h280.19V1346C835.99,1419.51,776.4,1479.1,702.89,1479.1z"/>
<path class="st0" d="M1074.61,1479.1h-91.27c-52.17,0-94.46-42.29-94.46-94.46v-185.73h280.19v185.73
	C1169.07,1436.81,1126.78,1479.1,1074.61,1479.1z"/>
<path class="st0" d="M1350.55,1479.1h-147.09v-280.19h280.19V1346C1483.65,1419.51,1424.06,1479.1,1350.55,1479.1z"/>
<path class="st0" d="M1718.9,1479.1h-91.27c-52.17,0-94.46-42.29-94.46-94.46v-185.73h280.19v185.73
	C1813.36,1436.81,1771.07,1479.1,1718.9,1479.1z"/>
</svg>
